# xmcd
#
# Track frame offsets:
#	150
#	4588
#	23186
#	39719
#	61383
#	62819
#	83440
#	99651
#	121716
#	141576
#	159376
#	179960
#	198029
#	202494
#
# Disc length: 2891 seconds
# Revision: 1
# Processed by: cddbd v1.5.2PL0 Copyright (c) Steve Scherf et al.
# Submitted via: dBpowerAMP V12.0
#
DISCID=c50b490e
DTITLE=Various Artist - Wheeler
DYEAR=2017
DGENRE=Soundtrack
TTITLE0=Stephen Dorff - Wheeler
TTITLE1=Stephen Dorff - Pour Me Out Of This Town
TTITLE2=Stephen Dorff - Fever
TTITLE3=Stephen Dorff - Wind
TTITLE4=Stephen Dorff - Ryman
TTITLE5=Stephen Dorff - She's Only 20
TTITLE6=Stephen Dorff - Tribe
TTITLE7=Stephen Dorff - Rainbow Slide
TTITLE8=Stephen Dorff - Showed Me The Way
TTITLE9=Stephen Dorff - Move On
TTITLE10=Stephen Dorff - Runner
TTITLE11=Stephen Dorff - Perfect Disaster
TTITLE12=Stephen Dorff - Eulogy
TTITLE13=Kris Kristofferson - New Mister Me
EXTD=
EXTT0=
EXTT1=
EXTT2=
EXTT3=
EXTT4=
EXTT5=
EXTT6=
EXTT7=
EXTT8=
EXTT9=
EXTT10=
EXTT11=
EXTT12=
EXTT13=
PLAYORDER=
